<svg width="128" height="128" viewBox="0 0 128 128" fill="none" xmlns="http://www.w3.org/2000/svg">
<g clip-path="url(#clip0_1298_30)">
<rect width="128" height="128" rx="28" fill="url(#paint0_linear_1298_30)"/>
<path d="M50.1987 20C55.0165 20.0002 58.8858 22.7204 61.9937 27.2021H67.6226C86.1506 27.2021 95.4153 27.2019 101.37 32.707C101.767 33.0744 102.15 33.4572 102.517 33.8545C108.022 39.8087 108.022 49.0729 108.022 67.6006C108.022 86.1286 108.022 95.3934 102.517 101.348C102.15 101.745 101.767 102.128 101.37 102.495C96.1863 107.287 88.4943 107.907 74.3667 107.987C74.3664 107.995 74.3667 107.999 74.3667 108H50.9194V107.952C38.1603 107.762 30.9128 106.8 26.0454 101.933C19.9779 95.865 19.978 86.0986 19.978 66.5674V50.2207C19.978 41.3693 19.9778 36.9429 21.3081 33.4121C23.4097 27.8344 27.8124 23.4326 33.3901 21.3311C36.921 20.0008 41.3473 20 50.1987 20Z" fill="#3265F2"/>
<path d="M19.978 68.0115C19.978 55.9243 19.978 49.8807 23.5034 45.9466C23.8399 45.5711 24.1966 45.2144 24.5721 44.8779C28.5062 41.3525 34.5498 41.3525 46.637 41.3525H81.3628C93.45 41.3525 99.4936 41.3525 103.428 44.8779C103.803 45.2144 104.16 45.5711 104.496 45.9466C108.022 49.8807 108.022 55.9243 108.022 68.0115V68.0115C108.022 86.1423 108.022 95.2077 102.734 101.109C102.229 101.672 101.694 102.207 101.131 102.712C95.2295 108 86.1641 108 68.0333 108H59.9665C41.8357 108 32.7703 108 26.8691 102.712C26.3059 102.207 25.7708 101.672 25.2661 101.109C19.978 95.2077 19.978 86.1423 19.978 68.0115V68.0115Z" fill="url(#paint1_linear_1298_30)" fill-opacity="0.08"/>
<path d="M43.3647 50.05H84.6353C89.1224 50.05 92.4517 50.0512 95.0728 50.2981C97.6861 50.5443 99.5425 51.0314 101.097 51.9729C102.931 53.0838 104.47 54.6223 105.581 56.4563C106.522 58.0111 107.01 59.8681 107.256 62.4817C107.503 65.1027 107.503 68.4321 107.503 72.9192C107.503 79.6454 107.503 84.6542 107.131 88.6008C106.76 92.5397 106.024 95.368 104.583 97.7473C102.894 100.534 100.556 102.872 97.769 104.56C95.3897 106.001 92.5615 106.739 88.6226 107.11C84.6759 107.481 79.6669 107.482 72.9409 107.482H55.0581C48.3323 107.482 43.324 107.481 39.3774 107.11C35.4384 106.739 32.6094 106.001 30.23 104.56C27.443 102.872 25.1055 100.534 23.4175 97.7473C21.9765 95.368 21.2397 92.5397 20.8687 88.6008C20.4969 84.6542 20.4956 79.6454 20.4956 72.9192C20.4956 68.4321 20.4968 65.1027 20.7437 62.4817C20.9898 59.8681 21.4768 58.0111 22.4185 56.4563C23.5294 54.6222 25.0677 53.0838 26.9019 51.9729C28.4566 51.0312 30.3137 50.5443 32.9272 50.2981C35.5483 50.0512 38.8776 50.05 43.3647 50.05Z" fill="url(#paint2_linear_1298_30)" stroke="url(#paint3_linear_1298_30)" stroke-width="1.03581"/>
<path d="M63.9236 64.6965C66.2823 64.6966 68.3611 65.0623 70.1541 65.802C71.9392 66.5385 73.4316 67.5406 74.6257 68.8098C75.8048 70.0563 76.7094 71.537 77.2791 73.1555H77.2781C77.8538 74.7701 78.1171 76.4591 78.0671 78.2209C78.005 80.6298 77.5012 82.5181 76.5251 83.8538V83.8547C75.5312 85.2018 73.994 85.8567 71.9705 85.8567V85.8557C70.9191 85.8643 69.8829 85.6074 68.9578 85.1077C68.4832 84.8551 68.0686 84.5128 67.7332 84.1047C67.3442 84.5056 66.8954 84.8201 66.3845 85.0432L66.3835 85.0422C65.5105 85.4304 64.5665 85.6334 63.6111 85.636H63.6101C62.3327 85.6359 61.1958 85.3631 60.2068 84.8108L60.2048 84.8098C59.2252 84.2531 58.4197 83.435 57.8787 82.4465L57.7761 82.2542C57.2803 81.2857 57.0349 80.1824 57.0349 78.9504C57.0349 77.5991 57.3265 76.4165 57.9187 75.4124C58.4817 74.4275 59.3054 73.617 60.2996 73.0706C61.2991 72.5195 62.4235 72.2463 63.6658 72.2463C64.4995 72.2464 65.3591 72.4193 66.2429 72.76C66.5749 72.8863 66.8823 73.0325 67.1628 73.1985V72.762H70.1511L70.1482 73.0227L70.0935 79.634C70.0938 80.5511 70.2741 81.1957 70.5925 81.6096C70.9018 82.0116 71.3644 82.2268 72.0261 82.2268C72.6154 82.2267 73.0305 82.0635 73.3123 81.7717C73.6272 81.4459 73.8548 80.9961 73.9822 80.4055L73.9832 80.4036C74.1367 79.7128 74.2204 79.0085 74.2341 78.301C74.2704 76.4252 73.9914 74.8646 73.4109 73.6086C72.8251 72.3414 72.0338 71.3259 71.0388 70.5559L71.0349 70.553C70.0643 69.7754 68.9501 69.1962 67.7556 68.8499H67.7527C66.5479 68.4884 65.3516 68.3079 64.1628 68.3079C62.4718 68.3079 60.978 68.5801 59.6765 69.1174H59.6746C58.3695 69.6443 57.2728 70.3911 56.3796 71.3557C55.4972 72.3097 54.8274 73.4442 54.3718 74.7629L54.3708 74.762C53.9279 76.0672 53.7172 77.5093 53.741 79.0901L53.7703 79.6702C53.8505 80.8164 54.0627 81.8703 54.405 82.8333L54.5876 83.3079V83.3098C55.0737 84.5111 55.8067 85.5972 56.738 86.4983H56.7371C57.555 87.2797 58.5074 87.905 59.5466 88.345L59.9978 88.5217L59.9988 88.5227C61.2558 88.9896 62.637 89.2239 64.1443 89.2239C64.9836 89.2239 65.8173 89.1287 66.6453 88.9368L66.6501 88.9358C67.4913 88.7555 68.2566 88.4971 68.948 88.1633L69.2058 88.0393L69.3044 88.3079L70.3542 91.1809L70.4353 91.4036L70.2205 91.5042C69.2561 91.955 68.2418 92.2866 67.1785 92.4993L67.1775 92.4983C66.1259 92.7229 65.0536 92.8372 63.9783 92.8362C61.9484 92.8361 60.0742 92.4995 58.3591 91.8235C56.647 91.1486 55.1567 90.1914 53.8914 88.9514L53.657 88.718C52.5015 87.5369 51.5853 86.1421 50.9597 84.6106L50.8347 84.2961C50.2291 82.7171 49.9275 81.0142 49.9275 79.1897C49.9275 76.8802 50.281 74.8213 50.9949 73.0178L50.9958 73.0159C51.7202 71.2176 52.7217 69.7007 54.0027 68.47L54.2458 68.2415C55.4757 67.1162 56.9112 66.2365 58.4744 65.6516C60.1748 65.014 61.992 64.6965 63.9236 64.6965ZM63.9236 75.8762C62.8499 75.8762 62.0952 76.1586 61.6082 76.678C61.1122 77.207 60.8494 77.9476 60.8494 78.9319C60.8494 79.9402 61.118 80.6825 61.6208 81.1975L61.7195 81.2922C62.2287 81.7482 62.9239 81.9875 63.8318 81.9875C64.6497 81.9875 65.3179 81.7524 65.8542 81.2942C66.3603 80.8619 66.6472 80.101 66.6472 78.9319C66.6472 77.8773 66.3928 77.1297 65.9275 76.6428L65.9236 76.6389C65.4683 76.1403 64.8145 75.8763 63.9236 75.8762Z" fill="#EAF0FF" stroke="url(#paint4_linear_1298_30)" stroke-width="0.517905"/>
</g>
<defs>
<linearGradient id="paint0_linear_1298_30" x1="64" y1="6.7254e-07" x2="64" y2="128" gradientUnits="userSpaceOnUse">
<stop stop-color="#FEFEFE"/>
<stop offset="1" stop-color="#EBEDEE"/>
</linearGradient>
<linearGradient id="paint1_linear_1298_30" x1="63.9999" y1="41.3525" x2="63.9999" y2="74.6763" gradientUnits="userSpaceOnUse">
<stop/>
<stop offset="1" stop-color="white"/>
</linearGradient>
<linearGradient id="paint2_linear_1298_30" x1="63.9999" y1="49.5325" x2="63.9999" y2="108" gradientUnits="userSpaceOnUse">
<stop stop-color="#93B0FF"/>
<stop offset="1" stop-color="#275AE8"/>
</linearGradient>
<linearGradient id="paint3_linear_1298_30" x1="63.9999" y1="49.5325" x2="63.9999" y2="108" gradientUnits="userSpaceOnUse">
<stop stop-color="#B3C7FF"/>
<stop offset="1" stop-color="white" stop-opacity="0"/>
</linearGradient>
<linearGradient id="paint4_linear_1298_30" x1="64.829" y1="73.3425" x2="76.107" y2="92.5769" gradientUnits="userSpaceOnUse">
<stop stop-color="white"/>
<stop offset="0.998457" stop-color="#2E5DDF" stop-opacity="0"/>
</linearGradient>
<clipPath id="clip0_1298_30">
<rect width="128" height="128" fill="white"/>
</clipPath>
</defs>
</svg>
