<svg xmlns="http://www.w3.org/2000/svg" width="32" height="32" fill="none" viewBox="0 0 32 32"><path fill="url(#a)" d="M14.5 9v11a6.006 6.006 0 0 1-6 6 1 1 0 0 1 0-2 4 4 0 0 0 4-4v-1H5a2 2 0 0 1-2-2V9a2 2 0 0 1 2-2h7.5a2 2 0 0 1 2 2M27 7h-7.5a2 2 0 0 0-2 2v8a2 2 0 0 0 2 2H27v1a4 4 0 0 1-4 4 1 1 0 0 0 0 2 6.006 6.006 0 0 0 6-6V9a2 2 0 0 0-2-2"/><defs><linearGradient id="a" x1="16" x2="16" y1="7" y2="26" gradientUnits="userSpaceOnUse"><stop stop-color="#3b82f6"/><stop offset="1" stop-color="#0061ff"/></linearGradient></defs></svg>