<svg xmlns="http://www.w3.org/2000/svg" width="32" height="32" fill="none" viewBox="0 0 32 32"><path fill="#22c55e" d="M2.5 16A9.51 9.51 0 0 1 12 6.5h12.375l-.44-.439a1.503 1.503 0 0 1 2.125-2.125l3 3a1.5 1.5 0 0 1 0 2.125l-3 3a1.503 1.503 0 0 1-2.125-2.125l.44-.436H12A6.51 6.51 0 0 0 5.5 16a1.5 1.5 0 1 1-3 0M28 14.5a1.5 1.5 0 0 0-1.5 1.5 6.507 6.507 0 0 1-6.5 6.5H7.625l.44-.439a1.502 1.502 0 1 0-2.125-2.125l-3 3a1.5 1.5 0 0 0 0 2.125l3 3a1.503 1.503 0 0 0 2.125-2.125l-.44-.436H20a9.51 9.51 0 0 0 9.5-9.5 1.5 1.5 0 0 0-1.5-1.5"/><path fill="#22c55e" d="M28 7.75v8a8 8 0 0 1-8 8H4v-8a8 8 0 0 1 8-8z" opacity=".2"/></svg>