<svg width="952" height="204" viewBox="0 0 952 204" fill="none" xmlns="http://www.w3.org/2000/svg">
<rect x="4" y="4" width="943.923" height="196" rx="44" fill="url(#paint0_linear_1282_2)"/>
<rect x="4" y="4" width="943.923" height="196" rx="44" stroke="url(#paint1_linear_1282_2)" stroke-width="8"/>
<path d="M108.22 48.5156C117.187 48.5156 125.089 49.9075 131.905 52.7197C138.692 55.5198 144.366 59.3279 148.905 64.1533L149.322 64.6006C153.6 69.2435 156.889 74.7102 158.987 80.6689L159.384 81.8232C161.296 87.6112 162.162 93.6481 161.984 99.9277C161.748 109.085 159.835 116.263 156.125 121.341L156.122 121.345C152.345 126.464 146.506 128.952 138.817 128.953L138.818 128.954C138.816 128.954 138.814 128.953 138.812 128.953L138.81 128.954V128.953C134.811 128.986 130.869 128.008 127.352 126.106V126.105C125.551 125.146 123.976 123.847 122.702 122.299C121.224 123.822 119.516 125.015 117.574 125.862L117.573 125.861C114.254 127.337 110.664 128.105 107.032 128.114H107.03C102.174 128.114 97.85 127.079 94.0898 124.979L94.084 124.976C90.357 122.858 87.293 119.744 85.2363 115.982V115.981C83.0926 112.129 82.0352 107.692 82.0352 102.7C82.0352 97.5633 83.1406 93.067 85.3916 89.25C87.532 85.5059 90.6647 82.4251 94.4443 80.3477C98.2441 78.2529 102.518 77.2158 107.24 77.2158C110.41 77.2159 113.678 77.8743 117.039 79.1699H117.04C118.303 79.6501 119.468 80.2057 120.535 80.8369V79.1758H131.893L131.885 80.168L131.675 105.298C131.676 108.785 132.36 111.236 133.57 112.81C134.746 114.338 136.504 115.155 139.02 115.155C141.261 115.155 142.841 114.535 143.912 113.426L144.133 113.188C145.216 111.972 146.004 110.337 146.458 108.232L146.459 108.227C147.043 105.6 147.364 102.921 147.416 100.23C147.554 93.0997 146.493 87.167 144.286 82.3926C142.059 77.575 139.05 73.7153 135.268 70.7881L135.261 70.7832L135.255 70.7783C131.565 67.8219 127.327 65.6224 122.786 64.3057L122.777 64.3027C118.197 62.9288 113.649 62.2441 109.13 62.2441C102.702 62.2442 97.0226 63.2778 92.0752 65.3203L92.0684 65.3232C87.1077 67.3257 82.937 70.1608 79.542 73.8271L79.543 73.8281C76.1896 77.4534 73.643 81.7644 71.9111 86.7754L71.9121 86.7764C70.2263 91.7427 69.4228 97.2291 69.5146 103.245C69.6996 109.205 70.7765 114.54 72.7295 119.264L72.7324 119.271C74.5794 123.836 77.3618 127.964 80.9004 131.389L81.5742 132.016C84.7564 134.902 88.4362 137.187 92.4346 138.759L93.2959 139.085L93.3027 139.087L94.2041 139.409C98.7389 140.97 103.688 141.756 109.06 141.756C112.25 141.756 115.42 141.391 118.567 140.661L118.575 140.659L118.584 140.657C121.782 139.972 124.694 138.993 127.322 137.724L128.302 137.251L128.675 138.272L132.665 149.192L132.975 150.04L132.157 150.422C128.491 152.136 124.635 153.397 120.593 154.205L120.592 154.204C116.594 155.058 112.518 155.487 108.43 155.483C100.713 155.483 93.5891 154.206 87.0693 151.636C80.56 149.07 74.8946 145.43 70.084 140.716C65.2698 136.043 61.4748 130.423 58.9385 124.212V124.211C56.3199 117.877 55.0157 111.006 55.0156 103.61C55.0156 94.8306 56.3614 87.0034 59.0752 80.1475L59.0771 80.1426C61.8307 73.3063 65.6381 67.5391 70.5078 62.8604C75.3817 58.1659 81.1661 54.5202 87.5039 52.1484L88.1113 51.9248C94.4006 49.6499 101.106 48.5157 108.22 48.5156ZM108.22 91.0146C104.138 91.0147 101.269 92.0887 99.418 94.0635C97.5327 96.0746 96.5342 98.8883 96.5342 102.63C96.5342 106.468 97.5574 109.293 99.4736 111.251H99.4727C101.438 113.212 104.194 114.245 107.87 114.245C110.98 114.245 113.521 113.353 115.561 111.611C117.484 109.968 118.575 107.074 118.575 102.63C118.575 98.621 117.607 95.7806 115.838 93.9297L115.831 93.9219L115.823 93.9141C114.092 92.0184 111.607 91.0146 108.22 91.0146Z" fill="#EAF0FF" stroke="url(#paint2_linear_1282_2)" stroke-width="1.96875"/>
<path d="M278.817 64.7998V52H355.057V64.7998H324.311V150.51H309.502V64.7942H278.812L278.817 64.7998ZM208.796 150.51H193.022L228.465 52H245.638L281.097 150.51H265.318L237.466 69.896H236.693L208.796 150.51ZM211.443 111.936H262.62V124.442H211.443V111.936Z" fill="white"/>
<path opacity="0.6" d="M895.923 52V150.51H881.543V52H895.923ZM831.049 152C824.124 152 818.08 150.414 812.916 147.242C807.752 144.065 803.745 139.623 800.889 133.918C798.039 128.206 796.611 121.536 796.611 113.905C796.611 106.241 798.039 99.5422 800.889 93.8026C803.745 88.063 807.752 83.6045 812.916 80.4271C818.08 77.2554 824.124 75.6695 831.049 75.6695C837.974 75.6695 844.018 77.2497 849.182 80.4271C854.346 83.6045 858.353 88.063 861.209 93.8026C864.064 99.5422 865.486 106.241 865.486 113.905C865.486 121.536 864.064 128.206 861.209 133.918C858.353 139.623 854.346 144.065 849.182 147.237C844.018 150.414 837.974 152 831.049 152ZM831.1 139.928C835.586 139.928 839.306 138.743 842.257 136.373C845.209 133.997 847.387 130.842 848.798 126.891C850.243 122.946 850.965 118.606 850.965 113.855C850.965 109.148 850.243 104.813 848.798 100.874C847.387 96.8953 845.209 93.7066 842.257 91.2968C839.306 88.8926 835.586 87.6905 831.1 87.6905C826.579 87.6905 822.826 88.8926 819.841 91.3024C816.895 93.7066 814.693 96.8953 813.254 100.868C811.805 105.045 811.089 109.44 811.138 113.86C811.138 118.601 811.843 122.946 813.254 126.897C814.693 130.836 816.895 133.997 819.841 136.367C822.826 138.737 826.579 139.928 831.1 139.928ZM754.199 152C747.049 152 740.891 150.38 735.727 147.146C730.597 143.873 726.652 139.369 723.898 133.63C721.139 127.885 719.762 121.315 719.762 113.905C719.762 106.399 721.172 99.7792 723.994 94.0396C726.816 88.2718 730.789 83.7682 735.919 80.5231C741.049 77.2892 747.094 75.6695 754.052 75.6695C759.668 75.6695 764.668 76.7079 769.059 78.7961C773.292 80.7145 776.955 83.6973 779.692 87.4535C782.417 91.1726 784.037 95.5183 784.551 100.49H770.554C769.782 97.0215 767.928 93.8874 765.261 91.5395C762.535 89.0393 758.883 87.7864 754.295 87.7864C750.288 87.7864 746.778 88.8475 743.764 90.9638C740.778 93.052 738.453 96.0318 736.788 99.909C735.118 103.758 734.288 108.312 734.288 113.567C734.288 118.956 735.101 123.607 736.738 127.518C738.374 131.429 740.683 134.46 743.662 136.604C746.682 138.76 750.22 139.832 754.295 139.832C757.021 139.832 759.487 139.336 761.705 138.342C763.946 137.315 765.825 135.859 767.332 133.963C768.867 132.072 769.945 129.792 770.554 127.134H784.551C784.104 131.725 782.498 136.128 779.883 139.928C777.227 143.729 773.632 146.778 769.448 148.777C765.12 150.922 760.035 152 754.199 152ZM672.586 152C665.661 152 659.617 150.414 654.453 147.242C649.289 144.065 645.282 139.623 642.426 133.918C639.576 128.206 638.148 121.536 638.148 113.905C638.148 106.241 639.576 99.5422 642.426 93.8026C645.282 88.063 649.289 83.6045 654.453 80.4271C659.617 77.2554 665.661 75.6695 672.586 75.6695C679.511 75.6695 685.555 77.2497 690.719 80.4271C695.883 83.6045 699.89 88.063 702.746 93.8026C705.596 99.5422 707.024 106.241 707.024 113.905C707.024 121.536 705.596 128.206 702.746 133.918C699.89 139.623 695.883 144.065 690.719 147.237C685.555 150.414 679.511 152 672.586 152ZM672.637 139.928C677.124 139.928 680.843 138.743 683.794 136.373C686.746 133.997 688.925 130.842 690.335 126.891C691.78 122.946 692.497 118.606 692.497 113.855C692.497 109.148 691.78 104.813 690.335 100.874C688.925 96.8953 686.746 93.7066 683.794 91.2968C680.843 88.8926 677.124 87.6905 672.637 87.6905C668.111 87.6905 664.363 88.8926 661.378 91.3024C658.432 93.7066 656.231 96.8953 654.792 100.868C653.342 105.045 652.626 109.44 652.675 113.86C652.675 118.601 653.381 122.946 654.792 126.897C656.231 130.836 658.432 133.997 661.378 136.367C664.363 138.737 668.111 139.928 672.637 139.928ZM626.353 76.6346V88.1702H585.995V76.6346H626.353ZM596.82 58.9304H611.2V128.816C611.2 131.609 611.618 133.709 612.447 135.12C613.283 136.497 614.361 137.445 615.675 137.959C617.019 138.438 618.48 138.675 620.049 138.675C621.206 138.675 622.216 138.596 623.08 138.438L625.1 138.055L627.696 149.934C626.537 150.344 625.349 150.664 624.141 150.894C622.241 151.284 620.307 151.477 618.367 151.469C614.736 151.564 611.127 150.874 607.786 149.449C604.564 148.082 601.808 145.81 599.851 142.908C597.83 139.962 596.82 136.254 596.82 131.801V58.9304ZM541.371 152C534.446 152 528.402 150.414 523.238 147.242C518.074 144.065 514.067 139.623 511.217 133.918C508.361 128.206 506.928 121.536 506.928 113.905C506.928 106.241 508.361 99.5422 511.217 93.8026C514.067 88.063 518.074 83.6045 523.238 80.4271C528.402 77.2554 534.446 75.6695 541.371 75.6695C548.296 75.6695 554.34 77.2497 559.504 80.4271C564.668 83.6045 568.675 88.063 571.531 93.8026C574.381 99.5422 575.809 106.241 575.809 113.905C575.809 121.536 574.381 128.206 571.531 133.918C568.675 139.623 564.668 144.065 559.504 147.237C554.34 150.414 548.296 152 541.371 152ZM541.416 139.928C545.909 139.928 549.628 138.743 552.579 136.373C555.531 133.997 557.709 130.842 559.12 126.891C560.565 122.946 561.282 118.606 561.282 113.855C561.282 109.148 560.565 104.813 559.12 100.874C557.709 96.8953 555.531 93.7066 552.579 91.2968C549.628 88.8926 545.909 87.6905 541.416 87.6905C536.901 87.6905 533.148 88.8926 530.163 91.3024C527.217 93.7066 525.016 96.8953 523.577 100.868C522.127 105.045 521.411 109.44 521.46 113.86C521.46 118.601 522.166 122.946 523.577 126.897C525.016 130.836 527.211 133.997 530.163 136.367C533.148 138.737 536.89 139.928 541.416 139.928ZM460.915 150.51V76.6346H474.815V88.3677H475.583C476.826 84.5265 479.335 81.2201 482.7 78.988C486.138 76.6759 490.199 75.4671 494.342 75.5228C496.382 75.5343 498.42 75.6473 500.449 75.8614V89.615C499.435 89.3763 498.408 89.1992 497.373 89.0845C495.909 88.8602 494.43 88.747 492.948 88.7459C489.545 88.7459 486.515 89.4739 483.857 90.913C481.232 92.3014 479.043 94.3893 477.532 96.9453C476.02 99.5013 475.246 102.426 475.295 105.395V150.51H460.915ZM375.431 150.51V52H410.54C418.204 52 424.553 53.3996 429.587 56.1876C434.621 58.9756 438.391 62.7907 440.891 67.6329C443.391 72.447 444.644 77.8649 444.644 83.8923C444.644 89.9536 443.375 95.4054 440.841 100.248C438.34 105.056 434.559 108.871 429.497 111.693C424.457 114.481 418.125 115.881 410.495 115.881H386.345V103.273H409.146C413.988 103.273 417.916 102.437 420.93 100.767C423.943 99.0738 426.156 96.7599 427.567 93.8421C428.978 90.9243 429.683 87.6059 429.683 83.8867C429.683 80.1619 428.978 76.866 427.567 73.9764C426.156 71.0925 423.927 68.8294 420.885 67.1984C417.871 65.5617 413.892 64.7434 408.954 64.7434H390.29V150.51H375.431Z" fill="white"/>
<defs>
<linearGradient id="paint0_linear_1282_2" x1="475.961" y1="0" x2="475.961" y2="204" gradientUnits="userSpaceOnUse">
<stop stop-color="#275AE8"/>
<stop offset="1" stop-color="#00217C"/>
</linearGradient>
<linearGradient id="paint1_linear_1282_2" x1="475.961" y1="0" x2="475.961" y2="204" gradientUnits="userSpaceOnUse">
<stop stop-color="#1E4CCD"/>
<stop offset="1" stop-color="#092E95"/>
</linearGradient>
<linearGradient id="paint2_linear_1282_2" x1="111.663" y1="81.3828" x2="154.534" y2="154.5" gradientUnits="userSpaceOnUse">
<stop stop-color="white"/>
<stop offset="0.998457" stop-color="#2E5DDF" stop-opacity="0"/>
</linearGradient>
</defs>
</svg>
