<svg width="204" height="204" viewBox="0 0 204 204" fill="none" xmlns="http://www.w3.org/2000/svg">
<rect x="1.2" y="1.2" width="201.6" height="201.6" rx="100.8" fill="url(#paint0_linear_1296_2)" stroke="url(#paint1_linear_1296_2)" stroke-width="2.4"/>
<path d="M101.708 48.5156C110.675 48.5156 118.578 49.9075 125.394 52.7197C132.181 55.5198 137.855 59.3279 142.394 64.1533L142.811 64.6006C147.089 69.2435 150.378 74.7102 152.476 80.6689L152.873 81.8232C154.785 87.6112 155.651 93.6481 155.473 99.9277C155.237 109.085 153.324 116.263 149.614 121.341L149.611 121.345C145.834 126.464 139.995 128.952 132.306 128.953L132.307 128.954C132.305 128.954 132.303 128.953 132.301 128.953L132.298 128.954V128.953C128.3 128.986 124.358 128.008 120.84 126.106V126.105C119.039 125.146 117.464 123.847 116.191 122.299C114.713 123.822 113.005 125.015 111.063 125.862L111.062 125.861C107.743 127.337 104.153 128.105 100.521 128.114H100.519C95.6624 128.114 91.3388 127.079 87.5786 124.979L87.5728 124.976C83.8457 122.858 80.7818 119.744 78.7251 115.982V115.981C76.5814 112.129 75.524 107.692 75.5239 102.7C75.5239 97.5633 76.6294 93.067 78.8804 89.25C81.0208 85.5059 84.1535 82.4251 87.9331 80.3477C91.7329 78.2529 96.0065 77.2158 100.729 77.2158C103.899 77.2159 107.167 77.8743 110.528 79.1699H110.529C111.791 79.6501 112.957 80.2057 114.024 80.8369V79.1758H125.381L125.374 80.168L125.164 105.298C125.165 108.785 125.849 111.236 127.059 112.81C128.235 114.338 129.993 115.155 132.508 115.155C134.749 115.155 136.33 114.535 137.401 113.426L137.622 113.188C138.705 111.972 139.493 110.337 139.947 108.232L139.948 108.227C140.532 105.6 140.852 102.921 140.905 100.23C141.043 93.0997 139.982 87.167 137.775 82.3926C135.548 77.575 132.539 73.7153 128.756 70.7881L128.75 70.7832L128.744 70.7783C125.054 67.8219 120.816 65.6224 116.275 64.3057L116.266 64.3027C111.686 62.9288 107.138 62.2441 102.619 62.2441C96.1906 62.2442 90.5114 63.2778 85.564 65.3203L85.5571 65.3232C80.5965 67.3257 76.4257 70.1608 73.0308 73.8271L73.0317 73.8281C69.6784 77.4534 67.1318 81.7644 65.3999 86.7754L65.4009 86.7764C63.7151 91.7427 62.9116 97.2291 63.0034 103.245C63.1884 109.205 64.2652 114.54 66.2183 119.264L66.2212 119.271C68.0681 123.836 70.8505 127.964 74.3892 131.389L75.063 132.016C78.2452 134.902 81.925 137.187 85.9233 138.759L86.7847 139.085L86.7915 139.087L87.6929 139.409C92.2277 140.97 97.1767 141.756 102.548 141.756C105.739 141.756 108.908 141.391 112.056 140.661L112.064 140.659L112.073 140.657C115.271 139.972 118.182 138.993 120.811 137.724L121.791 137.251L122.164 138.272L126.154 149.192L126.463 150.04L125.646 150.422C121.98 152.136 118.124 153.397 114.082 154.205L114.081 154.204C110.083 155.058 106.006 155.487 101.918 155.483C94.2017 155.483 87.0779 154.206 80.5581 151.636C74.0488 149.07 68.3833 145.43 63.5728 140.716C58.7586 136.043 54.9636 130.423 52.4272 124.212V124.211C49.8087 117.877 48.5044 111.006 48.5044 103.61C48.5044 94.8306 49.8501 87.0034 52.564 80.1475L52.5659 80.1426C55.3194 73.3063 59.1269 67.5391 63.9966 62.8604C68.8705 58.1659 74.6549 54.5202 80.9927 52.1484L81.6001 51.9248C87.8894 49.6499 94.5945 48.5157 101.708 48.5156ZM101.708 91.0146C97.6267 91.0147 94.7581 92.0887 92.9067 94.0635C91.0215 96.0746 90.023 98.8883 90.0229 102.63C90.0229 106.468 91.0462 109.293 92.9624 111.251H92.9614C94.9263 113.212 97.6823 114.245 101.359 114.245C104.469 114.245 107.01 113.353 109.049 111.611C110.973 109.968 112.064 107.074 112.064 102.63C112.064 98.621 111.095 95.7806 109.327 93.9297L109.32 93.9219L109.312 93.9141C107.581 92.0184 105.095 91.0146 101.708 91.0146Z" fill="#EAF0FF" stroke="url(#paint2_linear_1296_2)" stroke-width="1.96875"/>
<defs>
<linearGradient id="paint0_linear_1296_2" x1="102" y1="0" x2="102" y2="204" gradientUnits="userSpaceOnUse">
<stop stop-color="#275AE8"/>
<stop offset="1" stop-color="#00217C"/>
</linearGradient>
<linearGradient id="paint1_linear_1296_2" x1="102" y1="0" x2="102" y2="204" gradientUnits="userSpaceOnUse">
<stop stop-color="#3766EA"/>
<stop offset="1" stop-color="#0D308F"/>
</linearGradient>
<linearGradient id="paint2_linear_1296_2" x1="105.151" y1="81.3828" x2="148.023" y2="154.5" gradientUnits="userSpaceOnUse">
<stop stop-color="white"/>
<stop offset="0.998457" stop-color="#2E5DDF" stop-opacity="0"/>
</linearGradient>
</defs>
</svg>
