<svg width="204" height="204" viewBox="0 0 204 204" fill="none" xmlns="http://www.w3.org/2000/svg">
<rect width="204" height="204" rx="48" fill="url(#paint0_linear_1286_11)"/>
<rect x="28.4293" y="44.7183" width="88.7212" height="13.7074" rx="6.85371" fill="url(#paint1_linear_1286_11)" stroke="url(#paint2_linear_1286_11)" stroke-width="1.70741"/>
<rect x="28.4293" y="117.36" width="58.9736" height="13.7074" rx="6.85371" fill="url(#paint3_linear_1286_11)" stroke="url(#paint4_linear_1286_11)" stroke-width="1.70741"/>
<rect x="78.0329" y="69.7861" width="96.684" height="16" rx="8" fill="url(#paint5_linear_1286_11)"/>
<rect x="86.5493" y="142.428" width="88.1677" height="16" rx="8" fill="url(#paint6_linear_1286_11)"/>
<rect x="108.867" y="94" width="65.8501" height="16" rx="8" fill="url(#paint7_linear_1286_11)"/>
<defs>
<linearGradient id="paint0_linear_1286_11" x1="102" y1="1.07186e-06" x2="102" y2="204" gradientUnits="userSpaceOnUse">
<stop stop-color="#FEFEFE"/>
<stop offset="1" stop-color="#EBEDEE"/>
</linearGradient>
<linearGradient id="paint1_linear_1286_11" x1="72.7899" y1="45.572" x2="72.7899" y2="57.572" gradientUnits="userSpaceOnUse">
<stop/>
<stop offset="1" stop-color="#666666"/>
</linearGradient>
<linearGradient id="paint2_linear_1286_11" x1="72.7899" y1="45.572" x2="72.7899" y2="57.572" gradientUnits="userSpaceOnUse">
<stop stop-color="#7E7E7E"/>
<stop offset="1" stop-color="#2C2C2C"/>
</linearGradient>
<linearGradient id="paint3_linear_1286_11" x1="57.9161" y1="118.214" x2="57.9161" y2="130.214" gradientUnits="userSpaceOnUse">
<stop/>
<stop offset="1" stop-color="#666666"/>
</linearGradient>
<linearGradient id="paint4_linear_1286_11" x1="57.9161" y1="118.214" x2="57.9161" y2="130.214" gradientUnits="userSpaceOnUse">
<stop stop-color="#7E7E7E"/>
<stop offset="1" stop-color="#2C2C2C"/>
</linearGradient>
<linearGradient id="paint5_linear_1286_11" x1="126.375" y1="69.7861" x2="126.375" y2="85.7861" gradientUnits="userSpaceOnUse">
<stop stop-color="#FF3A82"/>
<stop offset="1" stop-color="#FF4A4E"/>
</linearGradient>
<linearGradient id="paint6_linear_1286_11" x1="130.633" y1="142.428" x2="130.633" y2="158.428" gradientUnits="userSpaceOnUse">
<stop stop-color="#FF3A82"/>
<stop offset="1" stop-color="#FF4A4E"/>
</linearGradient>
<linearGradient id="paint7_linear_1286_11" x1="141.792" y1="94" x2="141.792" y2="110" gradientUnits="userSpaceOnUse">
<stop stop-color="#FF3A82"/>
<stop offset="1" stop-color="#FF4A4E"/>
</linearGradient>
</defs>
</svg>
