<svg width="204" height="204" viewBox="0 0 204 204" fill="none" xmlns="http://www.w3.org/2000/svg">
<rect width="204" height="204" rx="48" fill="#FFDD00"/>
<path d="M144.611 60.2881L144.504 60.2252L144.256 60.1497C144.356 60.2337 144.481 60.2825 144.611 60.2881Z" fill="#0D0C22"/>
<path d="M144.658 60.2715C144.642 60.2695 144.627 60.2658 144.612 60.2605C144.611 60.2707 144.611 60.2811 144.612 60.2913C144.629 60.289 144.645 60.2822 144.658 60.2715Z" fill="#0D0C22"/>
<path d="M144.611 60.2877H144.624V60.2795L144.611 60.2877Z" fill="#0D0C22"/>
<path d="M146.075 71.4132L146.256 71.3103L146.323 71.2725L146.384 71.2075C146.269 71.2568 146.165 71.3266 146.075 71.4132Z" fill="#0D0C22"/>
<path d="M144.923 60.5323L144.747 60.3643L144.627 60.2993C144.691 60.4127 144.798 60.4964 144.923 60.5323Z" fill="#0D0C22"/>
<path d="M100.569 168.678C100.428 168.739 100.305 168.834 100.21 168.955L100.321 168.884C100.397 168.815 100.504 168.733 100.569 168.678Z" fill="#0D0C22"/>
<path d="M126.324 163.611C126.324 163.452 126.247 163.481 126.266 164.047C126.266 164.002 126.285 163.956 126.293 163.912C126.303 163.811 126.312 163.712 126.324 163.611Z" fill="#0D0C22"/>
<path d="M123.654 168.678C123.513 168.739 123.389 168.834 123.295 168.955L123.406 168.884C123.481 168.815 123.589 168.733 123.654 168.678Z" fill="#0D0C22"/>
<path d="M82.4305 169.883C82.3235 169.791 82.1926 169.73 82.0527 169.707C82.166 169.761 82.2794 169.816 82.3549 169.858L82.4305 169.883Z" fill="#0D0C22"/>
<path d="M78.348 165.974C78.3313 165.809 78.2806 165.65 78.199 165.504C78.2568 165.654 78.3051 165.809 78.3438 165.965L78.348 165.974Z" fill="#0D0C22"/>
<path d="M105.765 96.0645C100.161 98.4633 93.8021 101.183 85.5606 101.183C82.113 101.176 78.682 100.703 75.3611 99.777L81.0611 158.299C81.2628 160.744 82.3772 163.025 84.1827 164.688C85.9882 166.35 88.353 167.272 90.8073 167.272C90.8073 167.272 98.8892 167.692 101.586 167.692C104.489 167.692 113.192 167.272 113.192 167.272C115.646 167.272 118.01 166.349 119.815 164.687C121.62 163.024 122.734 160.744 122.936 158.299L129.041 93.6299C126.313 92.6982 123.559 92.0791 120.455 92.0791C115.087 92.077 110.761 93.926 105.765 96.0645Z" fill="white"/>
<path d="M57.717 71.0969L57.8136 71.1872L57.8765 71.225C57.8281 71.1768 57.7746 71.1339 57.717 71.0969Z" fill="#0D0C22"/>
<path d="M155.4 65.6953L154.542 61.3658C153.772 57.4811 152.023 53.8106 148.036 52.4066C146.758 51.9574 145.308 51.7644 144.328 50.8346C143.348 49.905 143.058 48.4611 142.831 47.1221C142.411 44.6645 142.017 42.2049 141.587 39.7516C141.215 37.6424 140.922 35.273 139.954 33.338C138.695 30.7399 136.082 29.2204 133.484 28.2152C132.152 27.7182 130.794 27.2978 129.414 26.956C122.923 25.2434 116.098 24.6138 109.42 24.255C101.405 23.8127 93.3682 23.9459 85.3717 24.6537C79.4199 25.1952 73.1512 25.85 67.4953 27.9088C65.4282 28.6622 63.2979 29.5667 61.7261 31.1638C59.7974 33.1261 59.1678 36.1607 60.5759 38.6077C61.5771 40.3454 63.2728 41.5732 65.0714 42.3854C67.4141 43.4319 69.8607 44.2282 72.3706 44.7611C79.3591 46.3058 86.5974 46.9122 93.737 47.1704C101.65 47.4897 109.576 47.2309 117.452 46.3959C119.4 46.1818 121.344 45.9251 123.284 45.6258C125.57 45.2752 127.037 42.2867 126.363 40.2048C125.557 37.7159 123.391 36.7505 120.942 37.1262C120.581 37.1828 120.222 37.2352 119.861 37.2877L119.601 37.3255C118.771 37.4305 117.942 37.5283 117.112 37.6193C115.398 37.804 113.68 37.9551 111.958 38.0727C108.1 38.3412 104.233 38.465 100.367 38.4714C96.5682 38.4714 92.7675 38.3643 88.9773 38.1146C87.248 38.0013 85.5228 37.8571 83.802 37.6822C83.0192 37.6004 82.2384 37.5144 81.4578 37.4178L80.7148 37.3234L80.5533 37.3003L79.783 37.1891C78.209 36.9519 76.635 36.6792 75.0778 36.3496C74.9207 36.3147 74.7801 36.2274 74.6793 36.1018C74.5786 35.9763 74.5237 35.8201 74.5237 35.6592C74.5237 35.4982 74.5786 35.342 74.6793 35.2165C74.7801 35.091 74.9207 35.0036 75.0778 34.9687H75.1072C76.4567 34.6812 77.8165 34.4356 79.1806 34.2216C79.6355 34.1502 80.0915 34.0803 80.549 34.0117H80.5616C81.4157 33.955 82.2742 33.8018 83.1241 33.7011C90.5191 32.9319 97.958 32.6696 105.389 32.9162C108.996 33.0211 112.602 33.2331 116.193 33.5982C116.965 33.678 117.733 33.762 118.501 33.8564C118.795 33.8921 119.091 33.934 119.387 33.9697L119.983 34.0558C121.721 34.3146 123.449 34.6287 125.169 34.9981C127.717 35.5521 130.989 35.7326 132.122 38.5238C132.483 39.4095 132.646 40.3937 132.846 41.3234L133.1 42.5092C133.106 42.5304 133.111 42.5523 133.114 42.5742C133.715 45.3724 134.316 48.1707 134.917 50.9689C134.961 51.1757 134.962 51.3892 134.92 51.5963C134.878 51.8036 134.794 51.9997 134.672 52.1729C134.551 52.346 134.396 52.4922 134.215 52.6025C134.035 52.7127 133.834 52.7846 133.624 52.8137H133.608L133.24 52.8641L132.877 52.9123C131.727 53.062 130.576 53.2019 129.423 53.3321C127.152 53.5909 124.878 53.8147 122.6 54.0037C118.074 54.3799 113.539 54.6269 108.994 54.7445C106.679 54.806 104.364 54.8348 102.05 54.8305C92.8388 54.8233 83.6357 54.2878 74.486 53.2271C73.4954 53.1096 72.5049 52.9836 71.5142 52.8557C72.2824 52.9543 70.956 52.7801 70.6874 52.7424C70.0578 52.6542 69.4282 52.5626 68.7986 52.4674C66.6852 52.1504 64.5845 51.7601 62.4753 51.418C59.9254 50.9983 57.4867 51.2082 55.1803 52.4674C53.2871 53.5035 51.7548 55.0921 50.7878 57.0216C49.793 59.0782 49.4971 61.3175 49.0522 63.5274C48.6073 65.7373 47.9147 68.1151 48.177 70.3837C48.7416 75.28 52.1645 79.259 57.088 80.1489C61.7198 80.9883 66.3767 81.6683 71.0462 82.2475C89.3893 84.4941 107.921 84.7628 126.321 83.0492C127.819 82.9093 129.316 82.7569 130.81 82.5917C131.277 82.5405 131.749 82.5942 132.192 82.7491C132.636 82.904 133.039 83.1561 133.372 83.4869C133.705 83.8176 133.96 84.2188 134.118 84.6608C134.276 85.103 134.333 85.5749 134.285 86.0419L133.82 90.5709C132.881 99.7224 131.942 108.873 131.003 118.024C130.024 127.633 129.038 137.241 128.046 146.848C127.766 149.555 127.487 152.26 127.207 154.964C126.938 157.628 126.9 160.375 126.395 163.007C125.597 167.145 122.795 169.687 118.707 170.617C114.962 171.469 111.135 171.917 107.294 171.951C103.036 171.974 98.7802 171.785 94.522 171.808C89.9762 171.834 84.4085 171.414 80.8996 168.031C77.8165 165.06 77.3905 160.406 76.9708 156.383C76.4112 151.056 75.8565 145.731 75.3065 140.406L72.2215 110.796L70.2257 91.637C70.1921 91.3201 70.1585 91.0074 70.127 90.6883C69.8877 88.403 68.2697 86.1658 65.7198 86.2812C63.5373 86.3777 61.0566 88.233 61.3126 90.6883L62.7921 104.892L65.852 134.274C66.7237 142.619 67.5932 150.966 68.4607 159.315C68.6286 160.914 68.786 162.518 68.9622 164.117C69.9214 172.856 76.5951 177.565 84.8597 178.891C89.6867 179.668 94.6311 179.828 99.5294 179.907C105.809 180.008 112.151 180.25 118.327 179.112C127.48 177.432 134.346 171.322 135.326 161.842C135.606 159.105 135.886 156.368 136.166 153.63C137.096 144.575 138.025 135.519 138.953 126.462L141.988 96.8711L143.379 83.3095C143.448 82.637 143.732 82.0047 144.189 81.5062C144.645 81.0077 145.25 80.6694 145.914 80.5413C148.531 80.0313 151.033 79.1603 152.894 77.1687C155.858 73.9977 156.447 69.8633 155.4 65.6953ZM56.9537 68.6209C56.9936 68.602 56.9201 68.944 56.8886 69.1035C56.8823 68.8622 56.8949 68.6481 56.9537 68.6209ZM57.2076 70.5852C57.2286 70.5705 57.2916 70.6545 57.3566 70.7553C57.258 70.6628 57.195 70.5937 57.2055 70.5852H57.2076ZM57.4574 70.9147C57.5959 71.1645 57.5476 71.0679 57.4574 70.9147ZM57.959 71.3218H57.9715C57.9715 71.3366 57.9946 71.3512 58.003 71.366C57.9891 71.3497 57.9736 71.335 57.9569 71.3218H57.959ZM145.793 70.7132C144.852 71.6072 143.436 72.0228 142.036 72.2306C126.338 74.5601 110.411 75.7396 94.5408 75.2191C83.1828 74.8309 71.9445 73.5695 60.6999 71.9808C59.598 71.8256 58.4039 71.6241 57.6462 70.8119C56.2191 69.2798 56.9201 66.1948 57.2916 64.3438C57.6316 62.648 58.2821 60.3878 60.299 60.1464C63.447 59.7771 67.1028 61.1055 70.2173 61.5777C73.9669 62.1499 77.7305 62.6082 81.5081 62.9524C97.6301 64.4215 114.023 64.1927 130.073 62.0437C132.999 61.6504 135.914 61.1937 138.819 60.6732C141.406 60.2094 144.275 59.3385 145.839 62.0184C146.911 63.8443 147.054 66.2871 146.888 68.3501C146.837 69.2489 146.444 70.0943 145.79 70.7132H145.793Z" fill="#0D0C22"/>
</svg>
