<svg width="204" height="204" viewBox="0 0 204 204" fill="none" xmlns="http://www.w3.org/2000/svg">
<rect width="204" height="204" rx="48" fill="url(#paint0_linear_1281_23)"/>
<mask id="path-2-inside-1_1281_23" fill="white">
<path d="M137.123 100.505C144.151 100.505 147.764 108.917 142.925 114.014L107.802 151.004C104.647 154.326 99.3535 154.326 96.1992 151.004L61.0762 114.014C56.2371 108.917 59.8502 100.505 66.8779 100.505H83.0312V58.5049C83.0312 54.0866 86.613 50.5049 91.0312 50.5049H113.031C117.449 50.505 121.031 54.0867 121.031 58.5049V100.505H137.123Z"/>
</mask>
<path d="M137.123 100.505C144.151 100.505 147.764 108.917 142.925 114.014L107.802 151.004C104.647 154.326 99.3535 154.326 96.1992 151.004L61.0762 114.014C56.2371 108.917 59.8502 100.505 66.8779 100.505H83.0312V58.5049C83.0312 54.0866 86.613 50.5049 91.0312 50.5049H113.031C117.449 50.505 121.031 54.0867 121.031 58.5049V100.505H137.123Z" fill="#1A1525"/>
<path d="M137.123 100.505V97.8382V97.8382V100.505ZM142.925 114.014L144.859 115.85L144.859 115.85L142.925 114.014ZM107.802 151.004L105.868 149.168L105.868 149.168L107.802 151.004ZM96.1992 151.004L98.133 149.168L98.133 149.168L96.1992 151.004ZM61.0762 114.014L59.1424 115.85L59.1424 115.85L61.0762 114.014ZM66.8779 100.505V103.172V103.172V100.505ZM83.0312 100.505V103.172H85.6979V100.505H83.0312ZM83.0312 58.5049L80.3646 58.5049V58.5049H83.0312ZM113.031 50.5049L113.031 47.8382H113.031V50.5049ZM121.031 100.505H118.365V103.172H121.031V100.505ZM137.123 100.505V103.172C141.808 103.172 144.217 108.78 140.991 112.178L142.925 114.014L144.859 115.85C151.311 109.055 146.493 97.8382 137.123 97.8382V100.505ZM142.925 114.014L140.991 112.177L105.868 149.168L107.802 151.004L109.736 152.84L144.859 115.85L142.925 114.014ZM107.802 151.004L105.868 149.168C103.765 151.382 100.236 151.382 98.133 149.168L96.1992 151.004L94.2654 152.84C98.4711 157.269 105.53 157.269 109.736 152.84L107.802 151.004ZM96.1992 151.004L98.133 149.168L63.01 112.177L61.0762 114.014L59.1424 115.85L94.2654 152.84L96.1992 151.004ZM61.0762 114.014L63.01 112.178C59.784 108.78 62.1926 103.172 66.8779 103.172V100.505V97.8382C57.5077 97.8382 52.6902 109.055 59.1424 115.85L61.0762 114.014ZM66.8779 100.505V103.172H83.0312V100.505V97.8382H66.8779V100.505ZM83.0312 100.505H85.6979V58.5049H83.0312H80.3646V100.505H83.0312ZM83.0312 58.5049H85.6979C85.6979 55.5594 88.0857 53.1715 91.0312 53.1715V50.5049V47.8382C85.1402 47.8382 80.3646 52.6138 80.3646 58.5049L83.0312 58.5049ZM91.0312 50.5049V53.1715H113.031V50.5049V47.8382H91.0312V50.5049ZM113.031 50.5049L113.031 53.1715C115.977 53.1716 118.365 55.5595 118.365 58.5049H121.031H123.698C123.698 52.6138 118.922 47.8383 113.031 47.8382L113.031 50.5049ZM121.031 58.5049H118.365V100.505H121.031H123.698V58.5049H121.031ZM121.031 100.505V103.172H137.123V100.505V97.8382H121.031V100.505Z" fill="url(#paint1_linear_1281_23)" mask="url(#path-2-inside-1_1281_23)"/>
<defs>
<linearGradient id="paint0_linear_1281_23" x1="102" y1="0" x2="102" y2="204" gradientUnits="userSpaceOnUse">
<stop stop-color="#DC8AF8"/>
<stop offset="1" stop-color="#8B6FE3"/>
</linearGradient>
<linearGradient id="paint1_linear_1281_23" x1="58.8613" y1="50.5049" x2="160.258" y2="135.447" gradientUnits="userSpaceOnUse">
<stop stop-color="#40334A"/>
<stop offset="1" stop-color="#29213E"/>
</linearGradient>
</defs>
</svg>
