<svg width="204" height="204" viewBox="0 0 204 204" fill="none" xmlns="http://www.w3.org/2000/svg">
<rect width="204" height="204" rx="48" fill="url(#paint0_linear_1263_23)"/>
<rect opacity="0.25" x="19.1055" y="79.4224" width="121" height="122" rx="10" transform="rotate(-30 19.1055 79.4224)" fill="url(#paint1_linear_1263_23)"/>
<rect opacity="0.5" x="27.7734" y="58.7371" width="121" height="122" rx="10" transform="rotate(-15 27.7734 58.7371)" fill="url(#paint2_linear_1263_23)"/>
<rect x="41.5" y="41" width="121" height="122" rx="10" fill="url(#paint3_linear_1263_23)"/>
<rect opacity="0.5" x="58.6714" y="62.4258" width="86.6573" height="14" rx="4" fill="#6293B5"/>
<rect opacity="0.5" x="59.2021" y="132.426" width="85.7213" height="9.14859" rx="3" fill="#C6CBD2"/>
<rect opacity="0.5" x="105.329" y="84.4258" width="40" height="40" rx="4" fill="#6293B5"/>
<rect opacity="0.5" x="58.6714" y="84.4258" width="38.7265" height="8.24435" rx="3" fill="#C6CBD2"/>
<rect opacity="0.5" x="58.6714" y="100.303" width="38.7265" height="8.24435" rx="3" fill="#C6CBD2"/>
<rect opacity="0.5" x="58.6714" y="116.181" width="38.7265" height="8.24435" rx="3" fill="#C6CBD2"/>
<defs>
<linearGradient id="paint0_linear_1263_23" x1="16.5425" y1="2.99176e-06" x2="187.458" y2="204" gradientUnits="userSpaceOnUse">
<stop stop-color="#0778C5"/>
<stop offset="1" stop-color="#055E9C"/>
</linearGradient>
<linearGradient id="paint1_linear_1263_23" x1="21.6329" y1="79.4224" x2="137.578" y2="201.422" gradientUnits="userSpaceOnUse">
<stop stop-color="#FCFDFE"/>
<stop offset="1" stop-color="#DDE5E9"/>
</linearGradient>
<linearGradient id="paint2_linear_1263_23" x1="30.3009" y1="58.7371" x2="146.246" y2="180.737" gradientUnits="userSpaceOnUse">
<stop stop-color="#FCFDFE"/>
<stop offset="1" stop-color="#DDE5E9"/>
</linearGradient>
<linearGradient id="paint3_linear_1263_23" x1="44.0274" y1="41" x2="159.973" y2="163" gradientUnits="userSpaceOnUse">
<stop stop-color="#FCFDFE"/>
<stop offset="1" stop-color="#DDE5E9"/>
</linearGradient>
</defs>
</svg>
