<svg width="204" height="204" viewBox="0 0 204 204" fill="none" xmlns="http://www.w3.org/2000/svg">
<rect width="204" height="204" rx="48" fill="black"/>
<path d="M58.0267 84.5866C72.5481 84.5866 84.32 72.8147 84.32 58.2933C84.32 43.7719 72.5481 32 58.0267 32C43.5053 32 31.7334 43.7719 31.7334 58.2933C31.7334 72.8147 43.5053 84.5866 58.0267 84.5866Z" fill="url(#paint0_linear_1292_2)"/>
<path d="M145.973 84.5866C160.495 84.5866 172.267 72.8147 172.267 58.2933C172.267 43.7719 160.495 32 145.973 32C131.452 32 119.68 43.7719 119.68 58.2933C119.68 72.8147 131.452 84.5866 145.973 84.5866Z" fill="url(#paint1_linear_1292_2)"/>
<path d="M58.0267 168C72.5481 168 84.32 156.228 84.32 141.707C84.32 127.185 72.5481 115.413 58.0267 115.413C43.5053 115.413 31.7334 127.185 31.7334 141.707C31.7334 156.228 43.5053 168 58.0267 168Z" fill="url(#paint2_linear_1292_2)"/>
<path d="M58.0267 84.5866C72.5481 84.5866 84.32 72.8147 84.32 58.2933C84.32 43.7719 72.5481 32 58.0267 32C43.5053 32 31.7334 43.7719 31.7334 58.2933C31.7334 72.8147 43.5053 84.5866 58.0267 84.5866Z" stroke="url(#paint3_linear_1292_2)" stroke-width="7.93333" stroke-linecap="round" stroke-linejoin="round"/>
<path d="M145.973 84.5866C160.495 84.5866 172.267 72.8147 172.267 58.2933C172.267 43.7719 160.495 32 145.973 32C131.452 32 119.68 43.7719 119.68 58.2933C119.68 72.8147 131.452 84.5866 145.973 84.5866Z" stroke="url(#paint4_linear_1292_2)" stroke-width="7.93333" stroke-linecap="round" stroke-linejoin="round"/>
<path d="M58.0267 168C72.5481 168 84.32 156.228 84.32 141.707C84.32 127.185 72.5481 115.413 58.0267 115.413C43.5053 115.413 31.7334 127.185 31.7334 141.707C31.7334 156.228 43.5053 168 58.0267 168Z" stroke="url(#paint5_linear_1292_2)" stroke-width="7.93333" stroke-linecap="round" stroke-linejoin="round"/>
<path d="M145.973 117.993V165.42" stroke="url(#paint6_linear_1292_2)" stroke-width="16" stroke-linecap="round" stroke-linejoin="round"/>
<path d="M169.687 141.707H122.26" stroke="url(#paint7_linear_1292_2)" stroke-width="16" stroke-linecap="round" stroke-linejoin="round"/>
<defs>
<linearGradient id="paint0_linear_1292_2" x1="40.6688" y1="32" x2="75.3846" y2="84.5866" gradientUnits="userSpaceOnUse">
<stop stop-color="#707070"/>
<stop offset="1" stop-color="#969696"/>
</linearGradient>
<linearGradient id="paint1_linear_1292_2" x1="128.616" y1="32" x2="163.331" y2="84.5866" gradientUnits="userSpaceOnUse">
<stop stop-color="#707070"/>
<stop offset="1" stop-color="#969696"/>
</linearGradient>
<linearGradient id="paint2_linear_1292_2" x1="40.6688" y1="115.413" x2="75.3846" y2="168" gradientUnits="userSpaceOnUse">
<stop stop-color="#707070"/>
<stop offset="1" stop-color="#969696"/>
</linearGradient>
<linearGradient id="paint3_linear_1292_2" x1="40.6688" y1="32" x2="75.3846" y2="84.5866" gradientUnits="userSpaceOnUse">
<stop stop-color="#B3B3B3"/>
<stop offset="1" stop-color="#696969"/>
</linearGradient>
<linearGradient id="paint4_linear_1292_2" x1="128.616" y1="32" x2="163.331" y2="84.5866" gradientUnits="userSpaceOnUse">
<stop stop-color="#B3B3B3"/>
<stop offset="1" stop-color="#696969"/>
</linearGradient>
<linearGradient id="paint5_linear_1292_2" x1="40.6688" y1="115.413" x2="75.3846" y2="168" gradientUnits="userSpaceOnUse">
<stop stop-color="#B3B3B3"/>
<stop offset="1" stop-color="#696969"/>
</linearGradient>
<linearGradient id="paint6_linear_1292_2" x1="140.821" y1="141.707" x2="150.779" y2="141.707" gradientUnits="userSpaceOnUse">
<stop stop-color="#5B5B5B"/>
<stop offset="0.33" stop-color="#4B4B4B"/>
<stop offset="1" stop-color="#3D3D3D"/>
</linearGradient>
<linearGradient id="paint7_linear_1292_2" x1="145.973" y1="136.84" x2="145.973" y2="147.813" gradientUnits="userSpaceOnUse">
<stop stop-color="#696969"/>
<stop offset="0.33" stop-color="#333333"/>
<stop offset="1" stop-color="#333333"/>
</linearGradient>
</defs>
</svg>
