<svg width="204" height="204" viewBox="0 0 204 204" fill="none" xmlns="http://www.w3.org/2000/svg">
<path d="M70.0215 0C81.1855 0.00016075 90.1549 6.30128 97.3564 16.6875H110.395C153.324 16.6875 174.789 16.688 188.585 29.4434C189.506 30.2945 190.393 31.181 191.244 32.1016C204 45.8978 204 67.3631 204 110.293C204 153.223 204 174.688 191.244 188.484C190.393 189.405 189.506 190.292 188.585 191.144C176.575 202.247 158.754 203.684 126.021 203.87C126.021 203.888 126.022 203.897 126.021 203.898H71.6924V203.787C42.1289 203.346 25.3365 201.118 14.0586 189.84C-0.000173332 175.781 0 153.153 0 107.898V70.0215C0 49.5129 -0.000159997 39.2581 3.08203 31.0771C7.95139 18.153 18.1521 7.95251 31.0762 3.08301C39.2572 0.000680939 49.5125 0 70.0215 0Z" fill="#3265F2"/>
<path d="M6.10352e-05 111.244C6.10352e-05 83.2376 6.10352e-05 69.2344 8.16851 60.1189C8.94805 59.2489 9.77464 58.4224 10.6446 57.6428C19.7601 49.4744 33.7633 49.4744 61.7697 49.4744H142.23C170.237 49.4744 184.24 49.4744 193.355 57.6428C194.225 58.4224 195.052 59.2489 195.831 60.1189C204 69.2344 204 83.2376 204 111.244C204 153.254 204 174.258 191.747 187.932C190.578 189.237 189.338 190.476 188.033 191.646C174.36 203.898 153.355 203.898 111.345 203.898H92.6545C50.6449 203.898 29.6401 203.898 15.9668 191.646C14.6619 190.476 13.422 189.237 12.2527 187.932C6.10352e-05 174.258 6.10352e-05 153.254 6.10352e-05 111.244Z" fill="url(#paint0_linear_1271_85)" fill-opacity="0.08"/>
<path d="M54.1885 69.6279H149.812C160.209 69.6279 167.924 69.6291 173.997 70.2012C180.053 70.7716 184.354 71.9011 187.956 74.083C192.206 76.6572 195.771 80.2216 198.345 84.4717C200.527 88.0741 201.656 92.3751 202.227 98.4307C202.799 104.504 202.8 112.219 202.8 122.616C202.8 138.201 202.799 149.806 201.938 158.95C201.078 168.077 199.369 174.63 196.03 180.144C192.119 186.601 186.703 192.017 180.245 195.929C174.732 199.268 168.179 200.976 159.052 201.836C149.907 202.697 138.302 202.698 122.718 202.698H81.2823C65.6978 202.698 54.0928 202.697 44.9483 201.836C35.8215 200.976 29.2681 199.268 23.7549 195.929C17.2971 192.017 11.8812 186.601 7.96979 180.144C4.63062 174.63 2.9223 168.077 2.06256 158.95C1.20117 149.806 1.20026 138.201 1.20026 122.616C1.20026 112.219 1.20142 104.504 1.7735 98.4307C2.34392 92.3751 3.47347 88.0741 5.65533 84.4717C8.22948 80.2216 11.7939 76.6572 16.044 74.083C19.6465 71.9011 23.9474 70.7716 30.003 70.2012C36.0762 69.6291 43.7911 69.6279 54.1885 69.6279Z" fill="url(#paint1_linear_1271_85)" stroke="url(#paint2_linear_1271_85)" stroke-width="2.4"/>
<path d="M101.822 103.563C107.288 103.563 112.105 104.412 116.26 106.126C120.396 107.833 123.854 110.154 126.621 113.095L127.126 113.643C129.611 116.412 131.529 119.646 132.767 123.161L133.008 123.865C134.174 127.393 134.701 131.073 134.593 134.9C134.449 140.482 133.283 144.857 131.021 147.952L131.02 147.954C128.717 151.074 125.158 152.591 120.472 152.592L120.473 152.593C120.471 152.593 120.469 152.593 120.468 152.593V152.592C118.031 152.612 115.628 152.015 113.483 150.856V150.855C112.385 150.27 111.427 149.478 110.65 148.533C109.749 149.462 108.708 150.191 107.523 150.708L107.522 150.707C105.5 151.606 103.312 152.074 101.099 152.08H101.097C98.1367 152.08 95.5017 151.45 93.21 150.17L93.2061 150.167C90.9356 148.877 89.069 146.98 87.8154 144.689C86.5072 142.341 85.8623 139.635 85.8623 136.59C85.8623 133.459 86.5361 130.718 87.9082 128.392C89.213 126.109 91.1226 124.231 93.4268 122.965C95.7426 121.688 98.3475 121.057 101.226 121.057C103.158 121.057 105.15 121.458 107.198 122.248L107.587 122.401C108.209 122.657 108.79 122.944 109.329 123.264V122.251H116.252L116.246 122.856L116.118 138.174C116.119 140.299 116.537 141.793 117.274 142.752C117.991 143.683 119.062 144.182 120.596 144.182C121.961 144.182 122.924 143.804 123.577 143.128L123.578 143.127C124.308 142.372 124.834 141.33 125.129 139.962L125.13 139.958C125.486 138.357 125.681 136.725 125.713 135.085C125.797 130.738 125.151 127.122 123.806 124.212C122.448 121.276 120.614 118.923 118.309 117.139L118.301 117.133C116.052 115.331 113.469 113.99 110.701 113.188L110.695 113.186C107.904 112.348 105.131 111.931 102.377 111.931C98.4591 111.931 94.9979 112.561 91.9824 113.806L91.9775 113.808C89.1427 114.952 86.7318 116.543 84.7363 118.579L84.3428 118.992C82.2983 121.203 80.747 123.831 79.6914 126.887C78.6653 129.911 78.1754 133.251 78.2305 136.913L78.2578 137.59C78.4153 140.73 78.9895 143.579 79.9736 146.142L80.1904 146.686L80.1924 146.69C81.3185 149.474 83.0151 151.99 85.1729 154.078H85.1719C87.2026 156.018 89.5908 157.542 92.2012 158.568L92.7266 158.768L92.7305 158.769C95.6429 159.85 98.8426 160.396 102.335 160.396C104.28 160.395 106.211 160.172 108.13 159.728L108.14 159.726C110.089 159.308 111.864 158.711 113.466 157.938L114.062 157.649L114.29 158.271L116.722 164.928L116.911 165.444L116.413 165.678C114.179 166.722 111.828 167.491 109.364 167.983L109.363 167.982C107.231 168.438 105.063 168.696 102.885 168.752L101.95 168.763C97.2466 168.763 92.9046 167.983 88.9307 166.417C84.9633 164.853 81.5102 162.635 78.5781 159.762L78.0352 159.221C75.3575 156.484 73.2336 153.252 71.7842 149.702V149.701C70.1881 145.84 69.3936 141.653 69.3936 137.145C69.3936 131.793 70.2131 127.023 71.8672 122.844L71.8682 122.84C73.5465 118.673 75.8678 115.158 78.8359 112.307L79.3994 111.778C82.249 109.171 85.5743 107.133 89.1963 105.777C93.1363 104.3 97.3465 103.564 101.822 103.563ZM101.822 129.467C99.3346 129.467 97.5865 130.122 96.458 131.325C95.3088 132.551 94.7002 134.266 94.7002 136.547C94.7002 138.886 95.3233 140.608 96.4912 141.802H96.4902C97.6879 142.997 99.3682 143.627 101.609 143.627C103.505 143.627 105.054 143.083 106.297 142.021C107.469 141.02 108.135 139.256 108.135 136.547C108.135 134.103 107.544 132.372 106.466 131.244L106.457 131.234C105.402 130.079 103.887 129.467 101.822 129.467Z" fill="#EAF0FF" stroke="url(#paint3_linear_1271_85)" stroke-width="1.2"/>
<defs>
<linearGradient id="paint0_linear_1271_85" x1="102" y1="49.4744" x2="102" y2="126.686" gradientUnits="userSpaceOnUse">
<stop/>
<stop offset="1" stop-color="white"/>
</linearGradient>
<linearGradient id="paint1_linear_1271_85" x1="102" y1="68.4277" x2="102" y2="203.898" gradientUnits="userSpaceOnUse">
<stop stop-color="#93B0FF"/>
<stop offset="1" stop-color="#275AE8"/>
</linearGradient>
<linearGradient id="paint2_linear_1271_85" x1="102" y1="68.4277" x2="102" y2="203.898" gradientUnits="userSpaceOnUse">
<stop stop-color="#B3C7FF"/>
<stop offset="1" stop-color="white" stop-opacity="0"/>
</linearGradient>
<linearGradient id="paint3_linear_1271_85" x1="103.921" y1="123.596" x2="130.052" y2="168.163" gradientUnits="userSpaceOnUse">
<stop stop-color="white"/>
<stop offset="0.998457" stop-color="#2E5DDF" stop-opacity="0"/>
</linearGradient>
</defs>
</svg>
