<svg width="204" height="204" viewBox="0 0 204 204" fill="none" xmlns="http://www.w3.org/2000/svg">
<rect width="204" height="204" rx="48" fill="url(#paint0_linear_1266_105)"/>
<path fill-rule="evenodd" clip-rule="evenodd" d="M65.4533 97.0001C65.4533 79.5774 79.5774 65.4533 97.0001 65.4533C114.423 65.4533 128.547 79.5774 128.547 97.0001C128.547 114.423 114.423 128.547 97.0001 128.547C79.5774 128.547 65.4533 114.423 65.4533 97.0001ZM97.0001 52C72.1472 52 52 72.1472 52 97.0001C52 121.853 72.1472 142 97.0001 142C105.805 142 114.02 139.471 120.957 135.1L134.929 149.071C138.834 152.976 145.166 152.976 149.071 149.071C152.976 145.166 152.976 138.834 149.071 134.929L135.1 120.957C139.471 114.02 142 105.805 142 97.0001C142 72.1472 121.853 52 97.0001 52Z" fill="#FEFDFF"/>
<defs>
<linearGradient id="paint0_linear_1266_105" x1="3.59014e-06" y1="1.57495e-05" x2="204" y2="204" gradientUnits="userSpaceOnUse">
<stop stop-color="#7653FA"/>
<stop offset="1" stop-color="#620BD6"/>
</linearGradient>
</defs>
</svg>
