<svg width="204" height="204" viewBox="0 0 204 204" fill="none" xmlns="http://www.w3.org/2000/svg">
<rect width="204" height="204" rx="48" fill="url(#paint0_linear_1272_7)"/>
<g filter="url(#filter0_i_1272_7)">
<path d="M92.3579 136.41C92.3579 149.995 81.296 161 67.7202 161C54.1979 160.999 43.1794 150.038 43.1792 136.506C43.1794 122.979 54.1453 112.013 67.6724 112.012H92.3579V136.41ZM136.328 112.012C149.855 112.012 160.821 122.979 160.821 136.506C160.821 150.038 149.802 160.999 136.28 161C122.704 160.999 111.642 149.995 111.642 136.41V112.012H136.328ZM67.7202 43.0005C81.2959 43.0005 92.3578 54.0052 92.3579 67.5903V91.9878H67.6724C54.1451 91.9874 43.1792 81.021 43.1792 67.4937C43.1796 53.9619 54.1979 43.0009 67.7202 43.0005ZM136.28 43.0005C149.802 43.0007 160.82 53.9618 160.821 67.4937C160.821 81.0211 149.855 91.9876 136.328 91.9878H111.642V67.5903C111.642 54.0053 122.704 43.0006 136.28 43.0005Z" fill="url(#paint1_radial_1272_7)"/>
</g>
<path d="M67.7202 161L67.7202 162.036H67.7202V161ZM43.1792 136.506L42.1425 136.506V136.506L43.1792 136.506ZM67.6724 112.012V110.976H67.6723L67.6724 112.012ZM92.3579 112.012H93.3946V110.976H92.3579V112.012ZM136.328 112.012L136.328 110.976H136.328V112.012ZM160.821 136.506L161.857 136.506V136.506L160.821 136.506ZM136.28 161L136.28 162.036H136.28L136.28 161ZM111.642 112.012V110.976H110.605V112.012H111.642ZM67.7202 43.0005V41.9638H67.7202L67.7202 43.0005ZM92.3579 67.5903H93.3946V67.5903L92.3579 67.5903ZM92.3579 91.9878V93.0245H93.3946V91.9878H92.3579ZM67.6724 91.9878L67.6723 93.0245H67.6724V91.9878ZM43.1792 67.4937L42.1425 67.4936V67.4937H43.1792ZM136.28 43.0005L136.28 41.9638H136.28L136.28 43.0005ZM160.821 67.4937H161.857V67.4936L160.821 67.4937ZM136.328 91.9878V93.0245H136.328L136.328 91.9878ZM111.642 91.9878H110.605V93.0245H111.642V91.9878ZM111.642 67.5903L110.605 67.5903V67.5903H111.642ZM92.3579 136.41H91.3212C91.3212 149.419 80.7264 159.963 67.7202 159.963V161V162.036C81.8657 162.036 93.3946 150.57 93.3946 136.41H92.3579ZM67.7202 161L67.7202 159.963C54.7675 159.962 44.2161 149.463 44.2159 136.506L43.1792 136.506L42.1425 136.506C42.1428 150.614 53.6283 162.036 67.7202 162.036L67.7202 161ZM43.1792 136.506L44.2159 136.506C44.216 123.552 54.7179 113.049 67.6724 113.049L67.6724 112.012L67.6723 110.976C53.5727 110.976 42.1427 122.407 42.1425 136.506L43.1792 136.506ZM67.6724 112.012V113.049H92.3579V112.012V110.976H67.6724V112.012ZM92.3579 112.012H91.3212V136.41H92.3579H93.3946V112.012H92.3579ZM136.328 112.012L136.328 113.049C149.282 113.049 159.784 123.552 159.784 136.506L160.821 136.506L161.857 136.506C161.857 122.407 150.428 110.976 136.328 110.976L136.328 112.012ZM160.821 136.506L159.784 136.506C159.784 149.463 149.233 159.963 136.28 159.963L136.28 161L136.28 162.036C150.372 162.036 161.857 150.614 161.857 136.506L160.821 136.506ZM136.28 161L136.28 159.963C123.274 159.963 112.679 149.419 112.679 136.41H111.642H110.605C110.605 150.57 122.134 162.036 136.28 162.036L136.28 161ZM111.642 136.41H112.679V112.012H111.642H110.605V136.41H111.642ZM111.642 112.012V113.049H136.328V112.012V110.976H111.642V112.012ZM67.7202 43.0005V44.0372C80.7263 44.0372 91.3211 54.5806 91.3212 67.5903L92.3579 67.5903L93.3946 67.5903C93.3944 53.4298 81.8656 41.9638 67.7202 41.9638V43.0005ZM92.3579 67.5903H91.3212V91.9878H92.3579H93.3946V67.5903H92.3579ZM92.3579 91.9878V90.9511H67.6724V91.9878V93.0245H92.3579V91.9878ZM67.6724 91.9878L67.6724 90.9511C54.7177 90.9507 44.2159 80.4484 44.2159 67.4937H43.1792H42.1425C42.1425 81.5935 53.5726 93.024 67.6723 93.0245L67.6724 91.9878ZM43.1792 67.4937L44.2159 67.4937C44.2162 54.5374 54.7676 44.0376 67.7202 44.0372L67.7202 43.0005L67.7202 41.9638C53.6283 41.9642 42.1429 53.3865 42.1425 67.4936L43.1792 67.4937ZM136.28 43.0005L136.28 44.0372C149.233 44.0374 159.784 54.5372 159.784 67.4937L160.821 67.4937L161.857 67.4936C161.857 53.3864 150.372 41.964 136.28 41.9638L136.28 43.0005ZM160.821 67.4937H159.784C159.784 80.4486 149.282 90.9509 136.328 90.9511L136.328 91.9878L136.328 93.0245C150.428 93.0242 161.857 81.5936 161.857 67.4937H160.821ZM136.328 91.9878V90.9511H111.642V91.9878V93.0245H136.328V91.9878ZM111.642 91.9878H112.679V67.5903H111.642H110.605V91.9878H111.642ZM111.642 67.5903L112.679 67.5903C112.679 54.5807 123.274 44.0373 136.28 44.0372L136.28 43.0005L136.28 41.9638C122.135 41.964 110.606 53.4299 110.605 67.5903L111.642 67.5903Z" fill="url(#paint2_linear_1272_7)"/>
<defs>
<filter id="filter0_i_1272_7" x="42.1426" y="41.9639" width="121.443" height="121.8" filterUnits="userSpaceOnUse" color-interpolation-filters="sRGB">
<feFlood flood-opacity="0" result="BackgroundImageFix"/>
<feBlend mode="normal" in="SourceGraphic" in2="BackgroundImageFix" result="shape"/>
<feColorMatrix in="SourceAlpha" type="matrix" values="0 0 0 0 0 0 0 0 0 0 0 0 0 0 0 0 0 0 127 0" result="hardAlpha"/>
<feOffset dx="1.72779" dy="1.72779"/>
<feGaussianBlur stdDeviation="1.72779"/>
<feComposite in2="hardAlpha" operator="arithmetic" k2="-1" k3="1"/>
<feColorMatrix type="matrix" values="0 0 0 0 1 0 0 0 0 1 0 0 0 0 1 0 0 0 0.48 0"/>
<feBlend mode="normal" in2="shape" result="effect1_innerShadow_1272_7"/>
</filter>
<linearGradient id="paint0_linear_1272_7" x1="102" y1="1.07186e-06" x2="102" y2="204" gradientUnits="userSpaceOnUse">
<stop stop-color="#B12801"/>
<stop offset="1" stop-color="#4F001B"/>
</linearGradient>
<radialGradient id="paint1_radial_1272_7" cx="0" cy="0" r="1" gradientUnits="userSpaceOnUse" gradientTransform="translate(100.5 103) rotate(90) scale(57.9995 70.8496)">
<stop stop-color="#FFB7B3"/>
<stop offset="1" stop-color="#F12B3D"/>
</radialGradient>
<linearGradient id="paint2_linear_1272_7" x1="43.1792" y1="45.0005" x2="131.483" y2="178.43" gradientUnits="userSpaceOnUse">
<stop stop-color="#FF8465"/>
<stop offset="1" stop-color="#C7050F"/>
</linearGradient>
</defs>
</svg>
