<svg width="204" height="204" viewBox="0 0 204 204" fill="none" xmlns="http://www.w3.org/2000/svg">
<rect width="204" height="204" rx="48" fill="url(#paint0_linear_1268_124)"/>
<path d="M118.638 78.51C127.042 78.51 133.462 78.5081 138.367 79.137C143.293 79.7685 146.909 81.0585 149.555 83.8127C152.219 86.587 153.163 90.0801 153.199 94.6702C153.235 99.2126 152.38 105.038 151.27 112.621L149.155 127.079C148.286 133.024 147.618 137.604 146.592 141.139C145.553 144.716 144.11 147.36 141.607 149.358C139.117 151.345 136.088 152.284 132.109 152.744C128.155 153.202 123.111 153.2 116.523 153.2H87.4764C80.889 153.2 75.8452 153.202 71.8914 152.744C67.9124 152.284 64.8838 151.345 62.3934 149.358C59.8902 147.36 58.4468 144.716 57.408 141.139C56.3816 137.604 55.7141 133.024 54.8445 127.079L52.7303 112.621C51.621 105.038 50.7649 99.2126 50.8006 94.6702C50.8367 90.0801 51.7814 86.5871 54.4461 83.8127C57.0916 81.0586 60.7078 79.7685 65.6336 79.137C70.5388 78.5081 76.9581 78.51 85.3621 78.51H118.638ZM97.4158 103.598C96.4876 103.023 95.4793 103.102 94.6649 103.637C93.8378 104.18 93.2001 105.212 93.2 106.549V127.451C93.2002 128.788 93.838 129.819 94.6649 130.363C95.4793 130.897 96.4875 130.977 97.4158 130.402L114.274 119.951C115.257 119.342 115.801 118.213 115.801 117C115.801 115.787 115.257 114.659 114.274 114.049L97.4158 103.598Z" fill="url(#paint1_linear_1268_124)" stroke="url(#paint2_linear_1268_124)" stroke-width="2.4"/>
<path opacity="0.4" d="M119.448 50.7998C120.591 50.7995 121.548 50.7987 122.398 50.8818C128.342 51.4635 133.273 55.0454 135.38 59.9609L136.097 61.6338H67.8993L68.6171 59.9609C70.7239 55.0454 75.6542 51.4633 81.5985 50.8818C82.4485 50.7987 83.405 50.7995 84.5477 50.7998H119.448Z" fill="url(#paint3_linear_1268_124)" stroke="url(#paint4_linear_1268_124)" stroke-width="2.4"/>
<path opacity="0.7" d="M131.307 64.4131C138.738 64.4131 144.92 68.9068 146.999 74.9941L147 74.9961C147.042 75.1188 147.084 75.2475 147.125 75.3799L147.786 77.5342L145.63 76.8809C143.72 76.3025 141.716 75.9202 139.665 75.6572C134.357 74.9766 127.617 74.9742 119.659 74.9746H85.1981C77.2398 74.9742 70.5009 74.9766 65.1923 75.6572C63.1408 75.9202 61.1375 76.3025 59.2274 76.8809L57.0643 77.5361L57.7333 75.377C57.773 75.249 57.8149 75.1212 57.8583 74.9941C59.9377 68.9068 66.1187 64.4132 73.5507 64.4131H131.307Z" fill="url(#paint5_linear_1268_124)" stroke="url(#paint6_linear_1268_124)" stroke-width="2.4"/>
<defs>
<linearGradient id="paint0_linear_1268_124" x1="102" y1="0" x2="102" y2="204" gradientUnits="userSpaceOnUse">
<stop stop-color="#017BD4"/>
<stop offset="1" stop-color="#2B2873"/>
</linearGradient>
<linearGradient id="paint1_linear_1268_124" x1="102" y1="79.7102" x2="102" y2="152" gradientUnits="userSpaceOnUse">
<stop stop-color="#25D5FF"/>
<stop offset="1" stop-color="#1383C7"/>
</linearGradient>
<linearGradient id="paint2_linear_1268_124" x1="102" y1="79.7102" x2="102" y2="152" gradientUnits="userSpaceOnUse">
<stop stop-color="#67E2FF"/>
<stop offset="1" stop-color="#1973B6"/>
</linearGradient>
<linearGradient id="paint3_linear_1268_124" x1="101.998" y1="52" x2="101.998" y2="60.4339" gradientUnits="userSpaceOnUse">
<stop stop-color="#25D5FF"/>
<stop offset="1" stop-color="#1383C7"/>
</linearGradient>
<linearGradient id="paint4_linear_1268_124" x1="101.998" y1="52" x2="101.998" y2="60.4339" gradientUnits="userSpaceOnUse">
<stop stop-color="#67E2FF"/>
<stop offset="1" stop-color="#1973B6"/>
</linearGradient>
<linearGradient id="paint5_linear_1268_124" x1="102.429" y1="65.6133" x2="102.429" y2="75.7324" gradientUnits="userSpaceOnUse">
<stop stop-color="#25D5FF"/>
<stop offset="1" stop-color="#1383C7"/>
</linearGradient>
<linearGradient id="paint6_linear_1268_124" x1="102.429" y1="65.6133" x2="102.429" y2="75.7324" gradientUnits="userSpaceOnUse">
<stop stop-color="#67E2FF"/>
<stop offset="1" stop-color="#1973B6"/>
</linearGradient>
</defs>
</svg>
